<?xml version="1.0" encoding="ISO-8859-1" standalone="no"?><svg xmlns="http://www.w3.org/2000/svg" xmlns:xlink="http://www.w3.org/1999/xlink" version="1.1"  >
<circle r="2" cx="0.0" cy="0.0" style="fill:rgb(255,0,0);stroke-width:1; stroke:none"  />
<circle r="2" cx="0.0" cy="7.673" style="fill:rgb(255,0,0);stroke-width:1; stroke:none"  />
<circle r="2" cx="0.0" cy="15.346" style="fill:rgb(255,0,0);stroke-width:1; stroke:none"  />
<circle r="2" cx="0.0" cy="23.019" style="fill:rgb(255,0,0);stroke-width:1; stroke:none"  />
<circle r="2" cx="0.0" cy="30.692" style="fill:rgb(255,0,0);stroke-width:1; stroke:none"  />
<circle r="2" cx="0.0" cy="38.365" style="fill:rgb(255,0,0);stroke-width:1; stroke:none"  />
<circle r="2" cx="0.0" cy="46.038" style="fill:rgb(255,0,0);stroke-width:1; stroke:none"  />
<circle r="2" cx="0.0" cy="53.711" style="fill:rgb(255,0,0);stroke-width:1; stroke:none"  />
<circle r="2" cx="0.0" cy="61.384" style="fill:rgb(255,0,0);stroke-width:1; stroke:none"  />
<circle r="2" cx="0.0" cy="69.057" style="fill:rgb(255,0,0);stroke-width:1; stroke:none"  />
<circle r="2" cx="7.673" cy="0.0" style="fill:rgb(255,0,0);stroke-width:1; stroke:none"  />
<circle r="2" cx="7.673" cy="7.673" style="fill:rgb(255,0,0);stroke-width:1; stroke:none"  />
<circle r="2" cx="7.673" cy="15.346" style="fill:rgb(255,0,0);stroke-width:1; stroke:none"  />
<circle r="2" cx="7.673" cy="23.019" style="fill:rgb(255,0,0);stroke-width:1; stroke:none"  />
<circle r="2" cx="7.673" cy="30.692" style="fill:rgb(255,0,0);stroke-width:1; stroke:none"  />
<circle r="2" cx="7.673" cy="38.365" style="fill:rgb(255,0,0);stroke-width:1; stroke:none"  />
<circle r="2" cx="7.673" cy="46.038" style="fill:rgb(255,0,0);stroke-width:1; stroke:none"  />
<circle r="2" cx="7.673" cy="53.711" style="fill:rgb(255,0,0);stroke-width:1; stroke:none"  />
<circle r="2" cx="7.673" cy="61.384" style="fill:rgb(255,0,0);stroke-width:1; stroke:none"  />
<circle r="2" cx="7.673" cy="69.057" style="fill:rgb(255,0,0);stroke-width:1; stroke:none"  />
<circle r="2" cx="15.346" cy="0.0" style="fill:rgb(255,0,0);stroke-width:1; stroke:none"  />
<circle r="2" cx="15.346" cy="7.673" style="fill:rgb(255,0,0);stroke-width:1; stroke:none"  />
<circle r="2" cx="15.346" cy="15.346" style="fill:rgb(255,0,0);stroke-width:1; stroke:none"  />
<circle r="2" cx="15.346" cy="23.019" style="fill:rgb(255,0,0);stroke-width:1; stroke:none"  />
<circle r="2" cx="15.346" cy="30.692" style="fill:rgb(255,0,0);stroke-width:1; stroke:none"  />
<circle r="2" cx="15.346" cy="38.365" style="fill:rgb(255,0,0);stroke-width:1; stroke:none"  />
<circle r="2" cx="15.346" cy="46.038" style="fill:rgb(255,0,0);stroke-width:1; stroke:none"  />
<circle r="2" cx="15.346" cy="53.711" style="fill:rgb(255,0,0);stroke-width:1; stroke:none"  />
<circle r="2" cx="15.346" cy="61.384" style="fill:rgb(255,0,0);stroke-width:1; stroke:none"  />
<circle r="2" cx="15.346" cy="69.057" style="fill:rgb(255,0,0);stroke-width:1; stroke:none"  />
<circle r="2" cx="23.019" cy="0.0" style="fill:rgb(255,0,0);stroke-width:1; stroke:none"  />
<circle r="2" cx="23.019" cy="7.673" style="fill:rgb(255,0,0);stroke-width:1; stroke:none"  />
<circle r="2" cx="23.019" cy="15.346" style="fill:rgb(255,0,0);stroke-width:1; stroke:none"  />
<circle r="2" cx="23.019" cy="23.019" style="fill:rgb(255,0,0);stroke-width:1; stroke:none"  />
<circle r="2" cx="23.019" cy="30.692" style="fill:rgb(255,0,0);stroke-width:1; stroke:none"  />
<circle r="2" cx="23.019" cy="38.365" style="fill:rgb(255,0,0);stroke-width:1; stroke:none"  />
<circle r="2" cx="23.019" cy="46.038" style="fill:rgb(255,0,0);stroke-width:1; stroke:none"  />
<circle r="2" cx="23.019" cy="53.711" style="fill:rgb(255,0,0);stroke-width:1; stroke:none"  />
<circle r="2" cx="23.019" cy="61.384" style="fill:rgb(255,0,0);stroke-width:1; stroke:none"  />
<circle r="2" cx="23.019" cy="69.057" style="fill:rgb(255,0,0);stroke-width:1; stroke:none"  />
<circle r="2" cx="30.692" cy="0.0" style="fill:rgb(255,0,0);stroke-width:1; stroke:none"  />
<circle r="2" cx="30.692" cy="7.673" style="fill:rgb(255,0,0);stroke-width:1; stroke:none"  />
<circle r="2" cx="30.692" cy="15.346" style="fill:rgb(255,0,0);stroke-width:1; stroke:none"  />
<circle r="2" cx="30.692" cy="23.019" style="fill:rgb(255,0,0);stroke-width:1; stroke:none"  />
<circle r="2" cx="30.692" cy="30.692" style="fill:rgb(255,0,0);stroke-width:1; stroke:none"  />
<circle r="2" cx="30.692" cy="38.365" style="fill:rgb(255,0,0);stroke-width:1; stroke:none"  />
<circle r="2" cx="30.692" cy="46.038" style="fill:rgb(255,0,0);stroke-width:1; stroke:none"  />
<circle r="2" cx="30.692" cy="53.711" style="fill:rgb(255,0,0);stroke-width:1; stroke:none"  />
<circle r="2" cx="30.692" cy="61.384" style="fill:rgb(255,0,0);stroke-width:1; stroke:none"  />
<circle r="2" cx="30.692" cy="69.057" style="fill:rgb(255,0,0);stroke-width:1; stroke:none"  />
<circle r="2" cx="38.365" cy="0.0" style="fill:rgb(255,0,0);stroke-width:1; stroke:none"  />
<circle r="2" cx="38.365" cy="7.673" style="fill:rgb(255,0,0);stroke-width:1; stroke:none"  />
<circle r="2" cx="38.365" cy="15.346" style="fill:rgb(255,0,0);stroke-width:1; stroke:none"  />
<circle r="2" cx="38.365" cy="23.019" style="fill:rgb(255,0,0);stroke-width:1; stroke:none"  />
<circle r="2" cx="38.365" cy="30.692" style="fill:rgb(255,0,0);stroke-width:1; stroke:none"  />
<circle r="2" cx="38.365" cy="38.365" style="fill:rgb(255,0,0);stroke-width:1; stroke:none"  />
<circle r="2" cx="38.365" cy="46.038" style="fill:rgb(255,0,0);stroke-width:1; stroke:none"  />
<circle r="2" cx="38.365" cy="53.711" style="fill:rgb(255,0,0);stroke-width:1; stroke:none"  />
<circle r="2" cx="38.365" cy="61.384" style="fill:rgb(255,0,0);stroke-width:1; stroke:none"  />
<circle r="2" cx="38.365" cy="69.057" style="fill:rgb(255,0,0);stroke-width:1; stroke:none"  />
<circle r="2" cx="46.038" cy="0.0" style="fill:rgb(255,0,0);stroke-width:1; stroke:none"  />
<circle r="2" cx="46.038" cy="7.673" style="fill:rgb(255,0,0);stroke-width:1; stroke:none"  />
<circle r="2" cx="46.038" cy="15.346" style="fill:rgb(255,0,0);stroke-width:1; stroke:none"  />
<circle r="2" cx="46.038" cy="23.019" style="fill:rgb(255,0,0);stroke-width:1; stroke:none"  />
<circle r="2" cx="46.038" cy="30.692" style="fill:rgb(255,0,0);stroke-width:1; stroke:none"  />
<circle r="2" cx="46.038" cy="38.365" style="fill:rgb(255,0,0);stroke-width:1; stroke:none"  />
<circle r="2" cx="46.038" cy="46.038" style="fill:rgb(255,0,0);stroke-width:1; stroke:none"  />
<circle r="2" cx="46.038" cy="53.711" style="fill:rgb(255,0,0);stroke-width:1; stroke:none"  />
<circle r="2" cx="46.038" cy="61.384" style="fill:rgb(255,0,0);stroke-width:1; stroke:none"  />
<circle r="2" cx="46.038" cy="69.057" style="fill:rgb(255,0,0);stroke-width:1; stroke:none"  />
<circle r="2" cx="53.711" cy="0.0" style="fill:rgb(255,0,0);stroke-width:1; stroke:none"  />
<circle r="2" cx="53.711" cy="7.673" style="fill:rgb(255,0,0);stroke-width:1; stroke:none"  />
<circle r="2" cx="53.711" cy="15.346" style="fill:rgb(255,0,0);stroke-width:1; stroke:none"  />
<circle r="2" cx="53.711" cy="23.019" style="fill:rgb(255,0,0);stroke-width:1; stroke:none"  />
<circle r="2" cx="53.711" cy="30.692" style="fill:rgb(255,0,0);stroke-width:1; stroke:none"  />
<circle r="2" cx="53.711" cy="38.365" style="fill:rgb(255,0,0);stroke-width:1; stroke:none"  />
<circle r="2" cx="53.711" cy="46.038" style="fill:rgb(255,0,0);stroke-width:1; stroke:none"  />
<circle r="2" cx="53.711" cy="53.711" style="fill:rgb(255,0,0);stroke-width:1; stroke:none"  />
<circle r="2" cx="53.711" cy="61.384" style="fill:rgb(255,0,0);stroke-width:1; stroke:none"  />
<circle r="2" cx="53.711" cy="69.057" style="fill:rgb(255,0,0);stroke-width:1; stroke:none"  />
<circle r="2" cx="61.384" cy="0.0" style="fill:rgb(255,0,0);stroke-width:1; stroke:none"  />
<circle r="2" cx="61.384" cy="7.673" style="fill:rgb(255,0,0);stroke-width:1; stroke:none"  />
<circle r="2" cx="61.384" cy="15.346" style="fill:rgb(255,0,0);stroke-width:1; stroke:none"  />
<circle r="2" cx="61.384" cy="23.019" style="fill:rgb(255,0,0);stroke-width:1; stroke:none"  />
<circle r="2" cx="61.384" cy="30.692" style="fill:rgb(255,0,0);stroke-width:1; stroke:none"  />
<circle r="2" cx="61.384" cy="38.365" style="fill:rgb(255,0,0);stroke-width:1; stroke:none"  />
<circle r="2" cx="61.384" cy="46.038" style="fill:rgb(255,0,0);stroke-width:1; stroke:none"  />
<circle r="2" cx="61.384" cy="53.711" style="fill:rgb(255,0,0);stroke-width:1; stroke:none"  />
<circle r="2" cx="61.384" cy="61.384" style="fill:rgb(255,0,0);stroke-width:1; stroke:none"  />
<circle r="2" cx="61.384" cy="69.057" style="fill:rgb(255,0,0);stroke-width:1; stroke:none"  />
<circle r="2" cx="69.057" cy="0.0" style="fill:rgb(255,0,0);stroke-width:1; stroke:none"  />
<circle r="2" cx="69.057" cy="7.673" style="fill:rgb(255,0,0);stroke-width:1; stroke:none"  />
<circle r="2" cx="69.057" cy="15.346" style="fill:rgb(255,0,0);stroke-width:1; stroke:none"  />
<circle r="2" cx="69.057" cy="23.019" style="fill:rgb(255,0,0);stroke-width:1; stroke:none"  />
<circle r="2" cx="69.057" cy="30.692" style="fill:rgb(255,0,0);stroke-width:1; stroke:none"  />
<circle r="2" cx="69.057" cy="38.365" style="fill:rgb(255,0,0);stroke-width:1; stroke:none"  />
<circle r="2" cx="69.057" cy="46.038" style="fill:rgb(255,0,0);stroke-width:1; stroke:none"  />
<circle r="2" cx="69.057" cy="53.711" style="fill:rgb(255,0,0);stroke-width:1; stroke:none"  />
<circle r="2" cx="69.057" cy="61.384" style="fill:rgb(255,0,0);stroke-width:1; stroke:none"  />
<circle r="2" cx="69.057" cy="69.057" style="fill:rgb(255,0,0);stroke-width:1; stroke:none"  />
<circle r="2" cx="0.0" cy="153.46" style="fill:rgb(0,0,0);stroke-width:1; stroke:none"  />
<circle r="2" cx="0.0" cy="161.133" style="fill:rgb(0,0,0);stroke-width:1; stroke:none"  />
<circle r="2" cx="0.0" cy="168.806" style="fill:rgb(0,0,0);stroke-width:1; stroke:none"  />
<circle r="2" cx="0.0" cy="176.479" style="fill:rgb(0,0,0);stroke-width:1; stroke:none"  />
<circle r="2" cx="0.0" cy="184.152" style="fill:rgb(0,0,0);stroke-width:1; stroke:none"  />
<circle r="2" cx="0.0" cy="191.825" style="fill:rgb(0,0,0);stroke-width:1; stroke:none"  />
<circle r="2" cx="0.0" cy="199.498" style="fill:rgb(0,0,0);stroke-width:1; stroke:none"  />
<circle r="2" cx="0.0" cy="207.171" style="fill:rgb(0,0,0);stroke-width:1; stroke:none"  />
<circle r="2" cx="0.0" cy="214.844" style="fill:rgb(0,0,0);stroke-width:1; stroke:none"  />
<circle r="2" cx="0.0" cy="222.517" style="fill:rgb(0,0,0);stroke-width:1; stroke:none"  />
<circle r="2" cx="7.673" cy="153.46" style="fill:rgb(0,0,0);stroke-width:1; stroke:none"  />
<circle r="2" cx="7.673" cy="161.133" style="fill:rgb(0,0,0);stroke-width:1; stroke:none"  />
<circle r="2" cx="7.673" cy="168.806" style="fill:rgb(0,0,0);stroke-width:1; stroke:none"  />
<circle r="2" cx="7.673" cy="176.479" style="fill:rgb(0,0,0);stroke-width:1; stroke:none"  />
<circle r="2" cx="7.673" cy="184.152" style="fill:rgb(0,0,0);stroke-width:1; stroke:none"  />
<circle r="2" cx="7.673" cy="191.825" style="fill:rgb(0,0,0);stroke-width:1; stroke:none"  />
<circle r="2" cx="7.673" cy="199.498" style="fill:rgb(0,0,0);stroke-width:1; stroke:none"  />
<circle r="2" cx="7.673" cy="207.171" style="fill:rgb(0,0,0);stroke-width:1; stroke:none"  />
<circle r="2" cx="7.673" cy="214.844" style="fill:rgb(0,0,0);stroke-width:1; stroke:none"  />
<circle r="2" cx="7.673" cy="222.517" style="fill:rgb(0,0,0);stroke-width:1; stroke:none"  />
<circle r="2" cx="15.346" cy="153.46" style="fill:rgb(0,0,0);stroke-width:1; stroke:none"  />
<circle r="2" cx="15.346" cy="161.133" style="fill:rgb(0,0,0);stroke-width:1; stroke:none"  />
<circle r="2" cx="15.346" cy="168.806" style="fill:rgb(0,0,0);stroke-width:1; stroke:none"  />
<circle r="2" cx="15.346" cy="176.479" style="fill:rgb(0,0,0);stroke-width:1; stroke:none"  />
<circle r="2" cx="15.346" cy="184.152" style="fill:rgb(0,0,0);stroke-width:1; stroke:none"  />
<circle r="2" cx="15.346" cy="191.825" style="fill:rgb(0,0,0);stroke-width:1; stroke:none"  />
<circle r="2" cx="15.346" cy="199.498" style="fill:rgb(0,0,0);stroke-width:1; stroke:none"  />
<circle r="2" cx="15.346" cy="207.171" style="fill:rgb(0,0,0);stroke-width:1; stroke:none"  />
<circle r="2" cx="15.346" cy="214.844" style="fill:rgb(0,0,0);stroke-width:1; stroke:none"  />
<circle r="2" cx="15.346" cy="222.517" style="fill:rgb(0,0,0);stroke-width:1; stroke:none"  />
<circle r="2" cx="23.019" cy="153.46" style="fill:rgb(0,0,0);stroke-width:1; stroke:none"  />
<circle r="2" cx="23.019" cy="161.133" style="fill:rgb(0,0,0);stroke-width:1; stroke:none"  />
<circle r="2" cx="23.019" cy="168.806" style="fill:rgb(0,0,0);stroke-width:1; stroke:none"  />
<circle r="2" cx="23.019" cy="176.479" style="fill:rgb(0,0,0);stroke-width:1; stroke:none"  />
<circle r="2" cx="23.019" cy="184.152" style="fill:rgb(0,0,0);stroke-width:1; stroke:none"  />
<circle r="2" cx="23.019" cy="191.825" style="fill:rgb(0,0,0);stroke-width:1; stroke:none"  />
<circle r="2" cx="23.019" cy="199.498" style="fill:rgb(0,0,0);stroke-width:1; stroke:none"  />
<circle r="2" cx="23.019" cy="207.171" style="fill:rgb(0,0,0);stroke-width:1; stroke:none"  />
<circle r="2" cx="23.019" cy="214.844" style="fill:rgb(0,0,0);stroke-width:1; stroke:none"  />
<circle r="2" cx="23.019" cy="222.517" style="fill:rgb(0,0,0);stroke-width:1; stroke:none"  />
<circle r="2" cx="30.692" cy="153.46" style="fill:rgb(0,0,0);stroke-width:1; stroke:none"  />
<circle r="2" cx="30.692" cy="161.133" style="fill:rgb(0,0,0);stroke-width:1; stroke:none"  />
<circle r="2" cx="30.692" cy="168.806" style="fill:rgb(0,0,0);stroke-width:1; stroke:none"  />
<circle r="2" cx="30.692" cy="176.479" style="fill:rgb(0,0,0);stroke-width:1; stroke:none"  />
<circle r="2" cx="30.692" cy="184.152" style="fill:rgb(0,0,0);stroke-width:1; stroke:none"  />
<circle r="2" cx="30.692" cy="191.825" style="fill:rgb(0,0,0);stroke-width:1; stroke:none"  />
<circle r="2" cx="30.692" cy="199.498" style="fill:rgb(0,0,0);stroke-width:1; stroke:none"  />
<circle r="2" cx="30.692" cy="207.171" style="fill:rgb(0,0,0);stroke-width:1; stroke:none"  />
<circle r="2" cx="30.692" cy="214.844" style="fill:rgb(0,0,0);stroke-width:1; stroke:none"  />
<circle r="2" cx="30.692" cy="222.517" style="fill:rgb(0,0,0);stroke-width:1; stroke:none"  />
<circle r="2" cx="38.365" cy="153.46" style="fill:rgb(0,0,0);stroke-width:1; stroke:none"  />
<circle r="2" cx="38.365" cy="161.133" style="fill:rgb(0,0,0);stroke-width:1; stroke:none"  />
<circle r="2" cx="38.365" cy="168.806" style="fill:rgb(0,0,0);stroke-width:1; stroke:none"  />
<circle r="2" cx="38.365" cy="176.479" style="fill:rgb(0,0,0);stroke-width:1; stroke:none"  />
<circle r="2" cx="38.365" cy="184.152" style="fill:rgb(0,0,0);stroke-width:1; stroke:none"  />
<circle r="2" cx="38.365" cy="191.825" style="fill:rgb(0,0,0);stroke-width:1; stroke:none"  />
<circle r="2" cx="38.365" cy="199.498" style="fill:rgb(0,0,0);stroke-width:1; stroke:none"  />
<circle r="2" cx="38.365" cy="207.171" style="fill:rgb(0,0,0);stroke-width:1; stroke:none"  />
<circle r="2" cx="38.365" cy="214.844" style="fill:rgb(0,0,0);stroke-width:1; stroke:none"  />
<circle r="2" cx="38.365" cy="222.517" style="fill:rgb(0,0,0);stroke-width:1; stroke:none"  />
<circle r="2" cx="46.038" cy="153.46" style="fill:rgb(0,0,0);stroke-width:1; stroke:none"  />
<circle r="2" cx="46.038" cy="161.133" style="fill:rgb(0,0,0);stroke-width:1; stroke:none"  />
<circle r="2" cx="46.038" cy="168.806" style="fill:rgb(0,0,0);stroke-width:1; stroke:none"  />
<circle r="2" cx="46.038" cy="176.479" style="fill:rgb(0,0,0);stroke-width:1; stroke:none"  />
<circle r="2" cx="46.038" cy="184.152" style="fill:rgb(0,0,0);stroke-width:1; stroke:none"  />
<circle r="2" cx="46.038" cy="191.825" style="fill:rgb(0,0,0);stroke-width:1; stroke:none"  />
<circle r="2" cx="46.038" cy="199.498" style="fill:rgb(0,0,0);stroke-width:1; stroke:none"  />
<circle r="2" cx="46.038" cy="207.171" style="fill:rgb(0,0,0);stroke-width:1; stroke:none"  />
<circle r="2" cx="46.038" cy="214.844" style="fill:rgb(0,0,0);stroke-width:1; stroke:none"  />
<circle r="2" cx="46.038" cy="222.517" style="fill:rgb(0,0,0);stroke-width:1; stroke:none"  />
<circle r="2" cx="53.711" cy="153.46" style="fill:rgb(0,0,0);stroke-width:1; stroke:none"  />
<circle r="2" cx="53.711" cy="161.133" style="fill:rgb(0,0,0);stroke-width:1; stroke:none"  />
<circle r="2" cx="53.711" cy="168.806" style="fill:rgb(0,0,0);stroke-width:1; stroke:none"  />
<circle r="2" cx="53.711" cy="176.479" style="fill:rgb(0,0,0);stroke-width:1; stroke:none"  />
<circle r="2" cx="53.711" cy="184.152" style="fill:rgb(0,0,0);stroke-width:1; stroke:none"  />
<circle r="2" cx="53.711" cy="191.825" style="fill:rgb(0,0,0);stroke-width:1; stroke:none"  />
<circle r="2" cx="53.711" cy="199.498" style="fill:rgb(0,0,0);stroke-width:1; stroke:none"  />
<circle r="2" cx="53.711" cy="207.171" style="fill:rgb(0,0,0);stroke-width:1; stroke:none"  />
<circle r="2" cx="53.711" cy="214.844" style="fill:rgb(0,0,0);stroke-width:1; stroke:none"  />
<circle r="2" cx="53.711" cy="222.517" style="fill:rgb(0,0,0);stroke-width:1; stroke:none"  />
<circle r="2" cx="61.384" cy="153.46" style="fill:rgb(0,0,0);stroke-width:1; stroke:none"  />
<circle r="2" cx="61.384" cy="161.133" style="fill:rgb(0,0,0);stroke-width:1; stroke:none"  />
<circle r="2" cx="61.384" cy="168.806" style="fill:rgb(0,0,0);stroke-width:1; stroke:none"  />
<circle r="2" cx="61.384" cy="176.479" style="fill:rgb(0,0,0);stroke-width:1; stroke:none"  />
<circle r="2" cx="61.384" cy="184.152" style="fill:rgb(0,0,0);stroke-width:1; stroke:none"  />
<circle r="2" cx="61.384" cy="191.825" style="fill:rgb(0,0,0);stroke-width:1; stroke:none"  />
<circle r="2" cx="61.384" cy="199.498" style="fill:rgb(0,0,0);stroke-width:1; stroke:none"  />
<circle r="2" cx="61.384" cy="207.171" style="fill:rgb(0,0,0);stroke-width:1; stroke:none"  />
<circle r="2" cx="61.384" cy="214.844" style="fill:rgb(0,0,0);stroke-width:1; stroke:none"  />
<circle r="2" cx="61.384" cy="222.517" style="fill:rgb(0,0,0);stroke-width:1; stroke:none"  />
<circle r="2" cx="69.057" cy="153.46" style="fill:rgb(0,0,0);stroke-width:1; stroke:none"  />
<circle r="2" cx="69.057" cy="161.133" style="fill:rgb(0,0,0);stroke-width:1; stroke:none"  />
<circle r="2" cx="69.057" cy="168.806" style="fill:rgb(0,0,0);stroke-width:1; stroke:none"  />
<circle r="2" cx="69.057" cy="176.479" style="fill:rgb(0,0,0);stroke-width:1; stroke:none"  />
<circle r="2" cx="69.057" cy="184.152" style="fill:rgb(0,0,0);stroke-width:1; stroke:none"  />
<circle r="2" cx="69.057" cy="191.825" style="fill:rgb(0,0,0);stroke-width:1; stroke:none"  />
<circle r="2" cx="69.057" cy="199.498" style="fill:rgb(0,0,0);stroke-width:1; stroke:none"  />
<circle r="2" cx="69.057" cy="207.171" style="fill:rgb(0,0,0);stroke-width:1; stroke:none"  />
<circle r="2" cx="69.057" cy="214.844" style="fill:rgb(0,0,0);stroke-width:1; stroke:none"  />
<circle r="2" cx="69.057" cy="222.517" style="fill:rgb(0,0,0);stroke-width:1; stroke:none"  />
</svg>
