<?xml version="1.0" encoding="ISO-8859-1" standalone="no"?><svg version="1.1" xmlns="http://www.w3.org/2000/svg" xmlns:xlink="http://www.w3.org/1999/xlink"  >
<circle r="2" style="fill:rgb(255,0,0);stroke-width:1; stroke:none" cx="0" cy="0"  />
<circle r="2" style="fill:rgb(255,0,0);stroke-width:1; stroke:none" cx="0" cy="20"  />
<circle r="2" style="fill:rgb(255,0,0);stroke-width:1; stroke:none" cx="0" cy="40"  />
<circle r="2" style="fill:rgb(255,0,0);stroke-width:1; stroke:none" cx="0" cy="60"  />
<circle r="2" style="fill:rgb(255,0,0);stroke-width:1; stroke:none" cx="0" cy="80"  />
<circle r="2" style="fill:rgb(255,0,0);stroke-width:1; stroke:none" cx="0" cy="100"  />
<circle r="2" style="fill:rgb(255,0,0);stroke-width:1; stroke:none" cx="0" cy="120"  />
<circle r="2" style="fill:rgb(255,0,0);stroke-width:1; stroke:none" cx="0" cy="140"  />
<circle r="2" style="fill:rgb(255,0,0);stroke-width:1; stroke:none" cx="0" cy="160"  />
<circle r="2" style="fill:rgb(255,0,0);stroke-width:1; stroke:none" cx="0" cy="180"  />
<circle r="2" style="fill:rgb(255,0,0);stroke-width:1; stroke:none" cx="20" cy="0"  />
<circle r="2" style="fill:rgb(255,0,0);stroke-width:1; stroke:none" cx="20" cy="20"  />
<circle r="2" style="fill:rgb(255,0,0);stroke-width:1; stroke:none" cx="20" cy="40"  />
<circle r="2" style="fill:rgb(255,0,0);stroke-width:1; stroke:none" cx="20" cy="60"  />
<circle r="2" style="fill:rgb(255,0,0);stroke-width:1; stroke:none" cx="20" cy="80"  />
<circle r="2" style="fill:rgb(255,0,0);stroke-width:1; stroke:none" cx="20" cy="100"  />
<circle r="2" style="fill:rgb(255,0,0);stroke-width:1; stroke:none" cx="20" cy="120"  />
<circle r="2" style="fill:rgb(255,0,0);stroke-width:1; stroke:none" cx="20" cy="140"  />
<circle r="2" style="fill:rgb(255,0,0);stroke-width:1; stroke:none" cx="20" cy="160"  />
<circle r="2" style="fill:rgb(255,0,0);stroke-width:1; stroke:none" cx="20" cy="180"  />
<circle r="2" style="fill:rgb(255,0,0);stroke-width:1; stroke:none" cx="40" cy="0"  />
<circle r="2" style="fill:rgb(255,0,0);stroke-width:1; stroke:none" cx="40" cy="20"  />
<circle r="2" style="fill:rgb(255,0,0);stroke-width:1; stroke:none" cx="40" cy="40"  />
<circle r="2" style="fill:rgb(255,0,0);stroke-width:1; stroke:none" cx="40" cy="60"  />
<circle r="2" style="fill:rgb(255,0,0);stroke-width:1; stroke:none" cx="40" cy="80"  />
<circle r="2" style="fill:rgb(255,0,0);stroke-width:1; stroke:none" cx="40" cy="100"  />
<circle r="2" style="fill:rgb(255,0,0);stroke-width:1; stroke:none" cx="40" cy="120"  />
<circle r="2" style="fill:rgb(255,0,0);stroke-width:1; stroke:none" cx="40" cy="140"  />
<circle r="2" style="fill:rgb(255,0,0);stroke-width:1; stroke:none" cx="40" cy="160"  />
<circle r="2" style="fill:rgb(255,0,0);stroke-width:1; stroke:none" cx="40" cy="180"  />
<circle r="2" style="fill:rgb(255,0,0);stroke-width:1; stroke:none" cx="60" cy="0"  />
<circle r="2" style="fill:rgb(255,0,0);stroke-width:1; stroke:none" cx="60" cy="20"  />
<circle r="2" style="fill:rgb(255,0,0);stroke-width:1; stroke:none" cx="60" cy="40"  />
<circle r="2" style="fill:rgb(255,0,0);stroke-width:1; stroke:none" cx="60" cy="60"  />
<circle r="2" style="fill:rgb(255,0,0);stroke-width:1; stroke:none" cx="60" cy="80"  />
<circle r="2" style="fill:rgb(255,0,0);stroke-width:1; stroke:none" cx="60" cy="100"  />
<circle r="2" style="fill:rgb(255,0,0);stroke-width:1; stroke:none" cx="60" cy="120"  />
<circle r="2" style="fill:rgb(255,0,0);stroke-width:1; stroke:none" cx="60" cy="140"  />
<circle r="2" style="fill:rgb(255,0,0);stroke-width:1; stroke:none" cx="60" cy="160"  />
<circle r="2" style="fill:rgb(255,0,0);stroke-width:1; stroke:none" cx="60" cy="180"  />
<circle r="2" style="fill:rgb(255,0,0);stroke-width:1; stroke:none" cx="80" cy="0"  />
<circle r="2" style="fill:rgb(255,0,0);stroke-width:1; stroke:none" cx="80" cy="20"  />
<circle r="2" style="fill:rgb(255,0,0);stroke-width:1; stroke:none" cx="80" cy="40"  />
<circle r="2" style="fill:rgb(255,0,0);stroke-width:1; stroke:none" cx="80" cy="60"  />
<circle r="2" style="fill:rgb(255,0,0);stroke-width:1; stroke:none" cx="80" cy="80"  />
<circle r="2" style="fill:rgb(255,0,0);stroke-width:1; stroke:none" cx="80" cy="100"  />
<circle r="2" style="fill:rgb(255,0,0);stroke-width:1; stroke:none" cx="80" cy="120"  />
<circle r="2" style="fill:rgb(255,0,0);stroke-width:1; stroke:none" cx="80" cy="140"  />
<circle r="2" style="fill:rgb(255,0,0);stroke-width:1; stroke:none" cx="80" cy="160"  />
<circle r="2" style="fill:rgb(255,0,0);stroke-width:1; stroke:none" cx="80" cy="180"  />
<circle r="2" style="fill:rgb(255,0,0);stroke-width:1; stroke:none" cx="100" cy="0"  />
<circle r="2" style="fill:rgb(255,0,0);stroke-width:1; stroke:none" cx="100" cy="20"  />
<circle r="2" style="fill:rgb(255,0,0);stroke-width:1; stroke:none" cx="100" cy="40"  />
<circle r="2" style="fill:rgb(255,0,0);stroke-width:1; stroke:none" cx="100" cy="60"  />
<circle r="2" style="fill:rgb(255,0,0);stroke-width:1; stroke:none" cx="100" cy="80"  />
<circle r="2" style="fill:rgb(255,0,0);stroke-width:1; stroke:none" cx="100" cy="100"  />
<circle r="2" style="fill:rgb(255,0,0);stroke-width:1; stroke:none" cx="100" cy="120"  />
<circle r="2" style="fill:rgb(255,0,0);stroke-width:1; stroke:none" cx="100" cy="140"  />
<circle r="2" style="fill:rgb(255,0,0);stroke-width:1; stroke:none" cx="100" cy="160"  />
<circle r="2" style="fill:rgb(255,0,0);stroke-width:1; stroke:none" cx="100" cy="180"  />
<circle r="2" style="fill:rgb(255,0,0);stroke-width:1; stroke:none" cx="120" cy="0"  />
<circle r="2" style="fill:rgb(255,0,0);stroke-width:1; stroke:none" cx="120" cy="20"  />
<circle r="2" style="fill:rgb(255,0,0);stroke-width:1; stroke:none" cx="120" cy="40"  />
<circle r="2" style="fill:rgb(255,0,0);stroke-width:1; stroke:none" cx="120" cy="60"  />
<circle r="2" style="fill:rgb(255,0,0);stroke-width:1; stroke:none" cx="120" cy="80"  />
<circle r="2" style="fill:rgb(255,0,0);stroke-width:1; stroke:none" cx="120" cy="100"  />
<circle r="2" style="fill:rgb(255,0,0);stroke-width:1; stroke:none" cx="120" cy="120"  />
<circle r="2" style="fill:rgb(255,0,0);stroke-width:1; stroke:none" cx="120" cy="140"  />
<circle r="2" style="fill:rgb(255,0,0);stroke-width:1; stroke:none" cx="120" cy="160"  />
<circle r="2" style="fill:rgb(255,0,0);stroke-width:1; stroke:none" cx="120" cy="180"  />
<circle r="2" style="fill:rgb(255,0,0);stroke-width:1; stroke:none" cx="140" cy="0"  />
<circle r="2" style="fill:rgb(255,0,0);stroke-width:1; stroke:none" cx="140" cy="20"  />
<circle r="2" style="fill:rgb(255,0,0);stroke-width:1; stroke:none" cx="140" cy="40"  />
<circle r="2" style="fill:rgb(255,0,0);stroke-width:1; stroke:none" cx="140" cy="60"  />
<circle r="2" style="fill:rgb(255,0,0);stroke-width:1; stroke:none" cx="140" cy="80"  />
<circle r="2" style="fill:rgb(255,0,0);stroke-width:1; stroke:none" cx="140" cy="100"  />
<circle r="2" style="fill:rgb(255,0,0);stroke-width:1; stroke:none" cx="140" cy="120"  />
<circle r="2" style="fill:rgb(255,0,0);stroke-width:1; stroke:none" cx="140" cy="140"  />
<circle r="2" style="fill:rgb(255,0,0);stroke-width:1; stroke:none" cx="140" cy="160"  />
<circle r="2" style="fill:rgb(255,0,0);stroke-width:1; stroke:none" cx="140" cy="180"  />
<circle r="2" style="fill:rgb(255,0,0);stroke-width:1; stroke:none" cx="160" cy="0"  />
<circle r="2" style="fill:rgb(255,0,0);stroke-width:1; stroke:none" cx="160" cy="20"  />
<circle r="2" style="fill:rgb(255,0,0);stroke-width:1; stroke:none" cx="160" cy="40"  />
<circle r="2" style="fill:rgb(255,0,0);stroke-width:1; stroke:none" cx="160" cy="60"  />
<circle r="2" style="fill:rgb(255,0,0);stroke-width:1; stroke:none" cx="160" cy="80"  />
<circle r="2" style="fill:rgb(255,0,0);stroke-width:1; stroke:none" cx="160" cy="100"  />
<circle r="2" style="fill:rgb(255,0,0);stroke-width:1; stroke:none" cx="160" cy="120"  />
<circle r="2" style="fill:rgb(255,0,0);stroke-width:1; stroke:none" cx="160" cy="140"  />
<circle r="2" style="fill:rgb(255,0,0);stroke-width:1; stroke:none" cx="160" cy="160"  />
<circle r="2" style="fill:rgb(255,0,0);stroke-width:1; stroke:none" cx="160" cy="180"  />
<circle r="2" style="fill:rgb(255,0,0);stroke-width:1; stroke:none" cx="180" cy="0"  />
<circle r="2" style="fill:rgb(255,0,0);stroke-width:1; stroke:none" cx="180" cy="20"  />
<circle r="2" style="fill:rgb(255,0,0);stroke-width:1; stroke:none" cx="180" cy="40"  />
<circle r="2" style="fill:rgb(255,0,0);stroke-width:1; stroke:none" cx="180" cy="60"  />
<circle r="2" style="fill:rgb(255,0,0);stroke-width:1; stroke:none" cx="180" cy="80"  />
<circle r="2" style="fill:rgb(255,0,0);stroke-width:1; stroke:none" cx="180" cy="100"  />
<circle r="2" style="fill:rgb(255,0,0);stroke-width:1; stroke:none" cx="180" cy="120"  />
<circle r="2" style="fill:rgb(255,0,0);stroke-width:1; stroke:none" cx="180" cy="140"  />
<circle r="2" style="fill:rgb(255,0,0);stroke-width:1; stroke:none" cx="180" cy="160"  />
<circle r="2" style="fill:rgb(255,0,0);stroke-width:1; stroke:none" cx="180" cy="180"  />
<circle r="2" style="fill:rgb(0,0,0);stroke-width:1; stroke:none" cx="0" cy="400"  />
<circle r="2" style="fill:rgb(0,0,0);stroke-width:1; stroke:none" cx="0" cy="420"  />
<circle r="2" style="fill:rgb(0,0,0);stroke-width:1; stroke:none" cx="0" cy="440"  />
<circle r="2" style="fill:rgb(0,0,0);stroke-width:1; stroke:none" cx="0" cy="460"  />
<circle r="2" style="fill:rgb(0,0,0);stroke-width:1; stroke:none" cx="0" cy="480"  />
<circle r="2" style="fill:rgb(0,0,0);stroke-width:1; stroke:none" cx="0" cy="500"  />
<circle r="2" style="fill:rgb(0,0,0);stroke-width:1; stroke:none" cx="0" cy="520"  />
<circle r="2" style="fill:rgb(0,0,0);stroke-width:1; stroke:none" cx="0" cy="540"  />
<circle r="2" style="fill:rgb(0,0,0);stroke-width:1; stroke:none" cx="0" cy="560"  />
<circle r="2" style="fill:rgb(0,0,0);stroke-width:1; stroke:none" cx="0" cy="580"  />
<circle r="2" style="fill:rgb(0,0,0);stroke-width:1; stroke:none" cx="20" cy="400"  />
<circle r="2" style="fill:rgb(0,0,0);stroke-width:1; stroke:none" cx="20" cy="420"  />
<circle r="2" style="fill:rgb(0,0,0);stroke-width:1; stroke:none" cx="20" cy="440"  />
<circle r="2" style="fill:rgb(0,0,0);stroke-width:1; stroke:none" cx="20" cy="460"  />
<circle r="2" style="fill:rgb(0,0,0);stroke-width:1; stroke:none" cx="20" cy="480"  />
<circle r="2" style="fill:rgb(0,0,0);stroke-width:1; stroke:none" cx="20" cy="500"  />
<circle r="2" style="fill:rgb(0,0,0);stroke-width:1; stroke:none" cx="20" cy="520"  />
<circle r="2" style="fill:rgb(0,0,0);stroke-width:1; stroke:none" cx="20" cy="540"  />
<circle r="2" style="fill:rgb(0,0,0);stroke-width:1; stroke:none" cx="20" cy="560"  />
<circle r="2" style="fill:rgb(0,0,0);stroke-width:1; stroke:none" cx="20" cy="580"  />
<circle r="2" style="fill:rgb(0,0,0);stroke-width:1; stroke:none" cx="40" cy="400"  />
<circle r="2" style="fill:rgb(0,0,0);stroke-width:1; stroke:none" cx="40" cy="420"  />
<circle r="2" style="fill:rgb(0,0,0);stroke-width:1; stroke:none" cx="40" cy="440"  />
<circle r="2" style="fill:rgb(0,0,0);stroke-width:1; stroke:none" cx="40" cy="460"  />
<circle r="2" style="fill:rgb(0,0,0);stroke-width:1; stroke:none" cx="40" cy="480"  />
<circle r="2" style="fill:rgb(0,0,0);stroke-width:1; stroke:none" cx="40" cy="500"  />
<circle r="2" style="fill:rgb(0,0,0);stroke-width:1; stroke:none" cx="40" cy="520"  />
<circle r="2" style="fill:rgb(0,0,0);stroke-width:1; stroke:none" cx="40" cy="540"  />
<circle r="2" style="fill:rgb(0,0,0);stroke-width:1; stroke:none" cx="40" cy="560"  />
<circle r="2" style="fill:rgb(0,0,0);stroke-width:1; stroke:none" cx="40" cy="580"  />
<circle r="2" style="fill:rgb(0,0,0);stroke-width:1; stroke:none" cx="60" cy="400"  />
<circle r="2" style="fill:rgb(0,0,0);stroke-width:1; stroke:none" cx="60" cy="420"  />
<circle r="2" style="fill:rgb(0,0,0);stroke-width:1; stroke:none" cx="60" cy="440"  />
<circle r="2" style="fill:rgb(0,0,0);stroke-width:1; stroke:none" cx="60" cy="460"  />
<circle r="2" style="fill:rgb(0,0,0);stroke-width:1; stroke:none" cx="60" cy="480"  />
<circle r="2" style="fill:rgb(0,0,0);stroke-width:1; stroke:none" cx="60" cy="500"  />
<circle r="2" style="fill:rgb(0,0,0);stroke-width:1; stroke:none" cx="60" cy="520"  />
<circle r="2" style="fill:rgb(0,0,0);stroke-width:1; stroke:none" cx="60" cy="540"  />
<circle r="2" style="fill:rgb(0,0,0);stroke-width:1; stroke:none" cx="60" cy="560"  />
<circle r="2" style="fill:rgb(0,0,0);stroke-width:1; stroke:none" cx="60" cy="580"  />
<circle r="2" style="fill:rgb(0,0,0);stroke-width:1; stroke:none" cx="80" cy="400"  />
<circle r="2" style="fill:rgb(0,0,0);stroke-width:1; stroke:none" cx="80" cy="420"  />
<circle r="2" style="fill:rgb(0,0,0);stroke-width:1; stroke:none" cx="80" cy="440"  />
<circle r="2" style="fill:rgb(0,0,0);stroke-width:1; stroke:none" cx="80" cy="460"  />
<circle r="2" style="fill:rgb(0,0,0);stroke-width:1; stroke:none" cx="80" cy="480"  />
<circle r="2" style="fill:rgb(0,0,0);stroke-width:1; stroke:none" cx="80" cy="500"  />
<circle r="2" style="fill:rgb(0,0,0);stroke-width:1; stroke:none" cx="80" cy="520"  />
<circle r="2" style="fill:rgb(0,0,0);stroke-width:1; stroke:none" cx="80" cy="540"  />
<circle r="2" style="fill:rgb(0,0,0);stroke-width:1; stroke:none" cx="80" cy="560"  />
<circle r="2" style="fill:rgb(0,0,0);stroke-width:1; stroke:none" cx="80" cy="580"  />
<circle r="2" style="fill:rgb(0,0,0);stroke-width:1; stroke:none" cx="100" cy="400"  />
<circle r="2" style="fill:rgb(0,0,0);stroke-width:1; stroke:none" cx="100" cy="420"  />
<circle r="2" style="fill:rgb(0,0,0);stroke-width:1; stroke:none" cx="100" cy="440"  />
<circle r="2" style="fill:rgb(0,0,0);stroke-width:1; stroke:none" cx="100" cy="460"  />
<circle r="2" style="fill:rgb(0,0,0);stroke-width:1; stroke:none" cx="100" cy="480"  />
<circle r="2" style="fill:rgb(0,0,0);stroke-width:1; stroke:none" cx="100" cy="500"  />
<circle r="2" style="fill:rgb(0,0,0);stroke-width:1; stroke:none" cx="100" cy="520"  />
<circle r="2" style="fill:rgb(0,0,0);stroke-width:1; stroke:none" cx="100" cy="540"  />
<circle r="2" style="fill:rgb(0,0,0);stroke-width:1; stroke:none" cx="100" cy="560"  />
<circle r="2" style="fill:rgb(0,0,0);stroke-width:1; stroke:none" cx="100" cy="580"  />
<circle r="2" style="fill:rgb(0,0,0);stroke-width:1; stroke:none" cx="120" cy="400"  />
<circle r="2" style="fill:rgb(0,0,0);stroke-width:1; stroke:none" cx="120" cy="420"  />
<circle r="2" style="fill:rgb(0,0,0);stroke-width:1; stroke:none" cx="120" cy="440"  />
<circle r="2" style="fill:rgb(0,0,0);stroke-width:1; stroke:none" cx="120" cy="460"  />
<circle r="2" style="fill:rgb(0,0,0);stroke-width:1; stroke:none" cx="120" cy="480"  />
<circle r="2" style="fill:rgb(0,0,0);stroke-width:1; stroke:none" cx="120" cy="500"  />
<circle r="2" style="fill:rgb(0,0,0);stroke-width:1; stroke:none" cx="120" cy="520"  />
<circle r="2" style="fill:rgb(0,0,0);stroke-width:1; stroke:none" cx="120" cy="540"  />
<circle r="2" style="fill:rgb(0,0,0);stroke-width:1; stroke:none" cx="120" cy="560"  />
<circle r="2" style="fill:rgb(0,0,0);stroke-width:1; stroke:none" cx="120" cy="580"  />
<circle r="2" style="fill:rgb(0,0,0);stroke-width:1; stroke:none" cx="140" cy="400"  />
<circle r="2" style="fill:rgb(0,0,0);stroke-width:1; stroke:none" cx="140" cy="420"  />
<circle r="2" style="fill:rgb(0,0,0);stroke-width:1; stroke:none" cx="140" cy="440"  />
<circle r="2" style="fill:rgb(0,0,0);stroke-width:1; stroke:none" cx="140" cy="460"  />
<circle r="2" style="fill:rgb(0,0,0);stroke-width:1; stroke:none" cx="140" cy="480"  />
<circle r="2" style="fill:rgb(0,0,0);stroke-width:1; stroke:none" cx="140" cy="500"  />
<circle r="2" style="fill:rgb(0,0,0);stroke-width:1; stroke:none" cx="140" cy="520"  />
<circle r="2" style="fill:rgb(0,0,0);stroke-width:1; stroke:none" cx="140" cy="540"  />
<circle r="2" style="fill:rgb(0,0,0);stroke-width:1; stroke:none" cx="140" cy="560"  />
<circle r="2" style="fill:rgb(0,0,0);stroke-width:1; stroke:none" cx="140" cy="580"  />
<circle r="2" style="fill:rgb(0,0,0);stroke-width:1; stroke:none" cx="160" cy="400"  />
<circle r="2" style="fill:rgb(0,0,0);stroke-width:1; stroke:none" cx="160" cy="420"  />
<circle r="2" style="fill:rgb(0,0,0);stroke-width:1; stroke:none" cx="160" cy="440"  />
<circle r="2" style="fill:rgb(0,0,0);stroke-width:1; stroke:none" cx="160" cy="460"  />
<circle r="2" style="fill:rgb(0,0,0);stroke-width:1; stroke:none" cx="160" cy="480"  />
<circle r="2" style="fill:rgb(0,0,0);stroke-width:1; stroke:none" cx="160" cy="500"  />
<circle r="2" style="fill:rgb(0,0,0);stroke-width:1; stroke:none" cx="160" cy="520"  />
<circle r="2" style="fill:rgb(0,0,0);stroke-width:1; stroke:none" cx="160" cy="540"  />
<circle r="2" style="fill:rgb(0,0,0);stroke-width:1; stroke:none" cx="160" cy="560"  />
<circle r="2" style="fill:rgb(0,0,0);stroke-width:1; stroke:none" cx="160" cy="580"  />
<circle r="2" style="fill:rgb(0,0,0);stroke-width:1; stroke:none" cx="180" cy="400"  />
<circle r="2" style="fill:rgb(0,0,0);stroke-width:1; stroke:none" cx="180" cy="420"  />
<circle r="2" style="fill:rgb(0,0,0);stroke-width:1; stroke:none" cx="180" cy="440"  />
<circle r="2" style="fill:rgb(0,0,0);stroke-width:1; stroke:none" cx="180" cy="460"  />
<circle r="2" style="fill:rgb(0,0,0);stroke-width:1; stroke:none" cx="180" cy="480"  />
<circle r="2" style="fill:rgb(0,0,0);stroke-width:1; stroke:none" cx="180" cy="500"  />
<circle r="2" style="fill:rgb(0,0,0);stroke-width:1; stroke:none" cx="180" cy="520"  />
<circle r="2" style="fill:rgb(0,0,0);stroke-width:1; stroke:none" cx="180" cy="540"  />
<circle r="2" style="fill:rgb(0,0,0);stroke-width:1; stroke:none" cx="180" cy="560"  />
<circle r="2" style="fill:rgb(0,0,0);stroke-width:1; stroke:none" cx="180" cy="580"  />
</svg>
